<svg xmlns="http://www.w3.org/2000/svg" width="48" height="60" fill="none" viewBox="0 0 48 60">
  <path fill="#000" d="M44.128 25.866c.567-1.454.872-3.351.872-5.884C45 7.107 37.531 0 24 0 10.469 0 3 7.107 3 19.982c0 2.533.304 4.43.872 5.884C1.507 27.502 0 29.564 0 32.102c0 3.235 1.127 4.398 3.73 4.668C4.654 49.782 13.35 60 24 60s19.346-10.218 20.27-23.23c2.602-.27 3.73-1.433 3.73-4.668 0-2.538-1.508-4.6-3.872-6.236ZM24 3c11.944 0 18 5.713 18 16.982 0 1.952-.172 3.334-.507 4.377C36.593 22.068 29.76 21 24 21c-5.76 0-12.593 1.068-17.493 3.359C6.172 23.316 6 21.934 6 19.982 6 8.713 12.056 3 24 3Zm0 54c-8.992 0-16.371-8.879-17.267-20.205 3.813-.203 9.42-.992 17.267-.992 7.848 0 13.454.788 17.267.992C40.371 48.121 32.992 57 24 57Zm20.843-23.398c-.071.041-.494.241-1.999.241-1.354 0-3.091-.152-5.291-.344-3.544-.31-7.955-.695-13.553-.695-5.597 0-10.008.386-13.552.695-2.2.192-3.938.344-5.292.344-1.476 0-1.911-.192-1.949-.192-.003 0-.003.001-.002.003-.002-.003-.205-.338-.205-1.552C3 27.327 14.067 24 24 24s21 3.327 21 8.102c0 1.115-.172 1.488-.157 1.5Z"/>
</svg>
