<svg xmlns="http://www.w3.org/2000/svg" width="84" height="84" fill="none" viewBox="0 0 84 84">
  <g clip-path="url(#a)">
    <path fill="#FD8469" d="M42 84c23.196 0 42-18.804 42-42S65.196 0 42 0 0 18.804 0 42s18.804 42 42 42Z"/>
    <path fill="#FC6F58" d="m13.717 68.916 10.11 10.11 4.255-21.612-9.085-2.757-6.434 3.69 1.06 8.966.094 1.603Zm69.915-21.348L53.705 17.64 33.447 35.803l-7.707 4.533 7.336 7.337-.655.604 30.276 30.275c11.187-6.349 19.173-17.684 20.935-30.985Z"/>
    <path fill="#E6F3FF" d="M26.43 63H28v-4.667h-1.57a8.08 8.08 0 0 0-.624-1.506l1.11-1.11-3.3-3.3-1.11 1.11A8.027 8.027 0 0 0 21 52.905v-1.57h-4.666v1.57a8.077 8.077 0 0 0-1.506.623l-1.11-1.11-3.3 3.3 1.11 1.11a8.05 8.05 0 0 0-.624 1.506h-1.57V63h1.57a8.08 8.08 0 0 0 .624 1.506l-1.11 1.11 3.3 3.3 1.11-1.11c.475.256.98.465 1.506.623V70H21v-1.57a8.073 8.073 0 0 0 1.506-.623l1.11 1.11 3.3-3.3-1.11-1.11c.256-.475.466-.98.623-1.506Zm-7.763 1.72a4.053 4.053 0 1 1 0-8.106 4.053 4.053 0 0 1 0 8.105Z"/>
    <path fill="#CFDBE6" d="M26.43 63H28v-4.667h-1.57a8.08 8.08 0 0 0-.624-1.506l1.11-1.11-3.3-3.3-1.11 1.11A8.05 8.05 0 0 0 21 52.905v-1.57h-2.38v5.282l.047-.002a4.053 4.053 0 1 1 0 8.105l-.047-.002V70H21v-1.57a8.077 8.077 0 0 0 1.506-.624l1.11 1.11 3.3-3.3-1.11-1.11c.256-.475.466-.98.623-1.506Z"/>
    <path fill="#FED8B2" d="M46.116 52.424V47.86h-8.232v4.564a.66.66 0 0 1-.66.66h-5.672v15.751H52.45V53.084h-5.673a.66.66 0 0 1-.66-.66Z"/>
    <path fill="#EABE96" d="M52.449 53.084h-5.673a.66.66 0 0 1-.66-.66V47.86h-4.304v20.975h10.637V53.084Z"/>
    <path fill="#FED8B2" d="M28.317 41.585a3.29 3.29 0 1 0 0-6.58 3.29 3.29 0 0 0 0 6.58Z"/>
    <path fill="#EABE96" d="M54.982 41.585a3.29 3.29 0 1 0 0-6.58 3.29 3.29 0 0 0 0 6.58Z"/>
    <path fill="#F4E3C3" d="M42.02 51.996h-.741c-6.857 0-12.416-5.56-12.416-12.416V28.244c0-6.857 5.559-12.416 12.416-12.416h.741c6.857 0 12.416 5.559 12.416 12.416V39.58c0 6.857-5.559 12.416-12.416 12.416Z"/>
    <path fill="#FED8B2" d="M42.02 15.828h-.209v36.168h.209c6.857 0 12.416-5.56 12.416-12.416V28.244c0-6.857-5.559-12.416-12.416-12.416Z"/>
    <path fill="#FFD15D" d="M41.247 14.278c-7.445 0-13.48 6.035-13.48 13.48v10.538h1.979v-5.569h-.002c4.122-.418 8.196-1.105 12.02-2.33v-16.12h-.517Z"/>
    <path fill="#F9B54C" d="M53.09 20.024c-2.439-3.474-6.472-5.746-11.038-5.746h-.287v16.118a35.622 35.622 0 0 0 5.066-2.045c1.862 2.139 4.013 4.05 6.387 5.598v4.346h2.314V27.757c0-2.878-.905-5.543-2.442-7.733Z"/>
    <path fill="#59595B" d="M35.622 38.114a1.279 1.279 0 1 0 0-2.557 1.279 1.279 0 0 0 0 2.557Z"/>
    <path fill="#272525" d="M47.676 38.114a1.279 1.279 0 1 0 0-2.557 1.279 1.279 0 0 0 0 2.557Z"/>
    <path fill="#FD8469" d="M41.65 47.314a4.182 4.182 0 0 1-4.178-4.178.707.707 0 1 1 1.414 0 2.767 2.767 0 0 0 2.763 2.764 2.767 2.767 0 0 0 2.764-2.764.707.707 0 1 1 1.414 0 4.182 4.182 0 0 1-4.178 4.178Z"/>
    <path fill="#FC6F58" d="M45.827 43.136a.707.707 0 1 0-1.414 0 2.764 2.764 0 0 1-2.601 2.756v1.414a4.18 4.18 0 0 0 4.015-4.17Z"/>
    <path fill="#324A5E" d="M55.717 32.525h-28V22.181a6.002 6.002 0 0 1 4.062-5.68l8.241-2.814a6 6 0 0 1 3.951.024l7.756 2.759a6 6 0 0 1 3.99 5.654v10.401Z"/>
    <path fill="#2B3B4E" d="M55.717 22.124a6.001 6.001 0 0 0-3.99-5.654l-7.757-2.76a5.997 5.997 0 0 0-2.16-.34v19.154h13.906v-10.4Z"/>
    <path fill="#2B3B4E" d="M27.152 33.763c0-2.812 6.647-5.091 14.848-5.091 8.2 0 14.849 2.279 14.849 5.09H27.152Z"/>
    <path fill="#20303F" d="m42 28.672-.188.001v5.09h15.037c0-2.812-6.648-5.091-14.849-5.091Z"/>
    <path fill="#31BAFD" d="M52.995 53.084h-4.38a6.966 6.966 0 0 1-13.93 0h-4.38a9.551 9.551 0 0 0-9.552 9.551v15.598A41.797 41.797 0 0 0 42 84c7.464 0 14.472-1.95 20.546-5.364v-16a9.552 9.552 0 0 0-9.551-9.552Z"/>
    <path fill="#2B9ED8" d="M52.995 53.084h-4.38a6.964 6.964 0 0 1-6.803 6.961v23.952c.063 0 .125.003.188.003 7.464 0 14.472-1.95 20.546-5.364v-16c0-5.276-4.276-9.552-9.551-9.552Z"/>
    <path fill="#324A5E" d="M32.667 53.084h-2.363c-.794 0-1.566.098-2.304.281v28.24A41.895 41.895 0 0 0 42 84c4.91 0 9.62-.849 14-2.398V53.57a9.54 9.54 0 0 0-3.005-.485h-1.661V70H32.667V53.084Z"/>
    <path fill="#2B3B4E" d="M52.995 53.084h-1.662V70h-9.521v13.998L42 84c4.91 0 9.62-.849 14-2.398V53.57a9.534 9.534 0 0 0-3.005-.485Z"/>
    <path fill="#fff" d="M77.763 49h1.57v-4.666h-1.57a8.067 8.067 0 0 0-.623-1.507l1.11-1.11-3.3-3.3-1.11 1.11a8.033 8.033 0 0 0-1.506-.623v-1.57h-4.667v1.57a8.07 8.07 0 0 0-1.506.623l-1.11-1.11-3.3 3.3 1.11 1.11c-.256.476-.465.98-.623 1.507h-1.571V49h1.57c.159.526.368 1.03.624 1.506l-1.11 1.11 3.3 3.3 1.11-1.11c.475.256.98.465 1.506.623V56h4.667v-1.57a8.073 8.073 0 0 0 1.506-.624l1.11 1.11 3.3-3.3-1.11-1.11c.256-.475.465-.98.623-1.506ZM70 50.72a4.053 4.053 0 1 1 0-8.106 4.053 4.053 0 0 1 0 8.105Z"/>
    <path fill="#E6F3FF" d="M77.763 49h1.57v-4.666h-1.57a8.068 8.068 0 0 0-.624-1.507l1.11-1.11-3.299-3.3-1.11 1.11a8.053 8.053 0 0 0-1.506-.623v-1.57h-2.428v5.285c.032-.001.063-.005.094-.005a4.053 4.053 0 1 1 0 8.105c-.031 0-.062-.004-.094-.004V56h2.428v-1.57a8.073 8.073 0 0 0 1.506-.624l1.11 1.11 3.3-3.3-1.11-1.11c.256-.475.465-.98.623-1.506Z"/>
  </g>
  <defs>
    <clipPath id="a">
      <path fill="#fff" d="M0 0h84v84H0z"/>
    </clipPath>
  </defs>
</svg>
