<svg width="800" height="800" viewBox="0 0 24 24" fill="none" xmlns="http://www.w3.org/2000/svg"><g fill-rule="evenodd" clip-rule="evenodd" fill="#585858"><path d="M7.75 17.5a.75.75 0 00-.75-.75H2a.75.75 0 000 1.5h5a.75.75 0 00.75-.75zm8.5-11a.75.75 0 01.75-.75h5a.75.75 0 010 1.5h-5a.75.75 0 01-.75-.75zm6.5 11a.75.75 0 00-.75-.75h-9a.75.75 0 000 1.5h9a.75.75 0 00.75-.75zm-21.5-11A.75.75 0 012 5.75h9a.75.75 0 010 1.5H2a.75.75 0 01-.75-.75z"/><path d="M10 15.15a2.25 2.25 0 110 4.5 2.25 2.25 0 010-4.5zm3.75 2.25a3.75 3.75 0 10-7.5 0 3.75 3.75 0 007.5 0zM14 4.15a2.25 2.25 0 100 4.5 2.25 2.25 0 000-4.5zM10.25 6.4a3.75 3.75 0 117.5 0 3.75 3.75 0 01-7.5 0z"/></g></svg>