<svg xmlns="http://www.w3.org/2000/svg" width="93" height="26" fill="none"><path fill="#fff" d="M1.666 10a.696.696 0 01-.49-.196.696.696 0 01-.196-.49V1.166C.98.438 1.419.074 2.296.074v8.764h4.298c.327 0 .579.103.756.308.177.196.266.48.266.854h-5.95zm9.452.126a3.664 3.664 0 01-1.553-.322 2.711 2.711 0 01-1.078-.868 2.178 2.178 0 01-.378-1.246V5.394c0-.467.126-.891.378-1.274.26-.383.62-.686 1.078-.91.457-.224.975-.336 1.553-.336.58 0 1.097.112 1.554.336.467.224.826.527 1.079.91.26.383.392.807.392 1.274V7.69c0 .457-.131.873-.393 1.246a2.71 2.71 0 01-1.078.868c-.457.215-.975.322-1.554.322zm0-1.05c.56 0 1.004-.13 1.33-.392.336-.27.505-.62.505-1.05V5.436c0-.448-.168-.812-.505-1.092-.326-.28-.77-.42-1.33-.42-.55 0-.994.14-1.33.42-.335.28-.503.644-.503 1.092v2.198c0 .43.163.78.49 1.05.335.261.784.392 1.343.392zm7.236 1.05c-.57 0-1.078-.103-1.526-.308a2.478 2.478 0 01-1.05-.868 2.286 2.286 0 01-.364-1.274V5.408c0-.495.122-.933.364-1.316a2.556 2.556 0 011.036-.896c.439-.215.943-.322 1.512-.322.532 0 1.004.08 1.414.238.42.15.747.364.98.644.234.28.35.597.35.952a.703.703 0 01-.28.574c-.177.14-.41.2-.7.182 0-.448-.163-.812-.49-1.092-.317-.28-.732-.42-1.246-.42-.513 0-.928.14-1.246.42-.317.27-.476.625-.476 1.064V7.62c0 .42.164.765.49 1.036.327.261.747.392 1.26.392.514 0 .929-.14 1.246-.42.327-.28.49-.64.49-1.078.299-.019.537.042.714.182a.64.64 0 01.28.56c0 .355-.116.672-.35.952-.233.28-.56.5-.98.658a4.23 4.23 0 01-1.428.224zm6.483 0c-.802 0-1.451-.215-1.946-.644-.485-.43-.728-.994-.728-1.694 0-.71.257-1.279.77-1.708.514-.439 1.19-.658 2.03-.658.896 0 1.633.317 2.212.952l.056-.056a6.179 6.179 0 00-.35-.35V5.38c0-.476-.15-.845-.448-1.106-.299-.261-.723-.392-1.274-.392-.98 0-1.68.387-2.1 1.162a1.18 1.18 0 01-.378-.294.672.672 0 01-.14-.392c0-.252.126-.49.378-.714.252-.233.584-.42.994-.56.42-.14.859-.21 1.316-.21.887 0 1.582.22 2.086.658.513.439.77 1.045.77 1.82v3.836c0 .327-.093.565-.28.714-.186.15-.48.224-.882.224v-.658c.196-.205.304-.327.322-.364l-.056-.056c-.607.719-1.39 1.078-2.352 1.078zm.21-.966c.579 0 1.031-.121 1.358-.364.336-.243.504-.579.504-1.008 0-.43-.163-.77-.49-1.022-.326-.252-.774-.378-1.344-.378-.532 0-.952.126-1.26.378-.299.243-.448.583-.448 1.022 0 .439.145.78.434 1.022.299.233.714.35 1.246.35zm6.961.966c-.681 0-1.19-.187-1.526-.56-.336-.383-.504-.882-.504-1.498V.97c0-.308.098-.532.294-.672.205-.15.513-.224.924-.224v7.952c0 .364.075.625.224.784.15.159.397.238.742.238s.663-.084.952-.252c.121.14.182.303.182.49 0 .224-.117.42-.35.588-.233.168-.546.252-.938.252zm6.255 0c-.784 0-1.465-.112-2.044-.336-.57-.224-1.003-.523-1.302-.896-.299-.373-.448-.775-.448-1.204 0-.355.093-.625.28-.812.187-.196.471-.294.854-.294 0 .793.238 1.4.714 1.82.476.41 1.144.616 2.002.616.822 0 1.451-.135 1.89-.406.439-.28.658-.69.658-1.232 0-.327-.084-.593-.252-.798-.159-.215-.434-.397-.826-.546-.383-.159-.938-.317-1.666-.476-.858-.187-1.54-.401-2.044-.644-.504-.252-.873-.555-1.106-.91-.233-.355-.35-.793-.35-1.316s.145-.98.434-1.372c.299-.401.719-.71 1.26-.924.541-.215 1.172-.322 1.89-.322.681 0 1.288.098 1.82.294.541.187.962.457 1.26.812.308.345.462.737.462 1.176 0 .27-.089.485-.266.644-.168.15-.434.224-.798.224-.102-.71-.355-1.227-.756-1.554-.392-.327-.966-.49-1.722-.49-.728 0-1.288.13-1.68.392a1.208 1.208 0 00-.588 1.078c0 .327.07.597.21.812.15.205.397.383.742.532.355.15.85.294 1.484.434.952.205 1.699.434 2.24.686.55.252.947.56 1.19.924s.364.812.364 1.344c0 .85-.354 1.521-1.064 2.016-.71.485-1.656.728-2.842.728zm8.324 0c-.57 0-1.078-.107-1.526-.322a2.637 2.637 0 01-1.05-.91 2.382 2.382 0 01-.378-1.316V5.506c0-.495.13-.943.392-1.344.27-.401.63-.714 1.078-.938.457-.233.952-.35 1.484-.35s1.017.112 1.456.336c.448.224.798.532 1.05.924.261.392.392.835.392 1.33v.896c0 .15-.056.275-.168.378a.58.58 0 01-.406.154h-4.088v.63c0 .476.15.859.448 1.148.308.29.747.434 1.316.434.57 0 1.003-.126 1.302-.378.299-.252.448-.593.448-1.022.28-.019.513.037.7.168a.6.6 0 01.294.546c0 .299-.13.579-.392.84-.252.261-.588.471-1.008.63a3.77 3.77 0 01-1.344.238zm1.764-4.186v-.476c0-.467-.163-.845-.49-1.134-.317-.299-.742-.448-1.274-.448s-.961.15-1.288.448c-.317.29-.476.667-.476 1.134v.476h3.528zm5.789-1.988c-.524 0-.958.159-1.303.476a1.461 1.461 0 00-.518 1.134V9.23c0 .308-.103.537-.308.686-.196.14-.5.21-.91.21V3.91c0-.69.392-1.036 1.176-1.036v.854a1.68 1.68 0 00-.308.42l.056.056c.597-.887 1.344-1.33 2.24-1.33.336 0 .593.084.77.252a.758.758 0 01.266.588.81.81 0 01-.126.448c-.261-.14-.607-.21-1.036-.21zm5.233 6.174a.666.666 0 01-.615-.392l-2.689-6.762a.916.916 0 01.238-.07c.103-.019.197-.028.28-.028.206 0 .388.047.546.14a.7.7 0 01.322.406l1.849 5.026-.197.56.07.028 2.1-5.614a.7.7 0 01.322-.406 1.03 1.03 0 01.533-.14 1.577 1.577 0 01.532.098l-2.689 6.762a.622.622 0 01-.238.28.602.602 0 01-.364.112zm5.463-8.302a.92.92 0 01-.658-.252.832.832 0 01-.266-.63c0-.252.088-.457.266-.616a.92.92 0 01.658-.252c.252 0 .466.084.644.252a.788.788 0 01.266.616.832.832 0 01-.266.63.902.902 0 01-.644.252zM64.22 3.77c0-.308.098-.532.294-.672.205-.15.513-.224.924-.224V9.23c0 .308-.103.537-.308.686-.196.14-.5.21-.91.21V3.77zm6.292 6.356c-.569 0-1.078-.103-1.526-.308a2.478 2.478 0 01-1.05-.868 2.286 2.286 0 01-.364-1.274V5.408c0-.495.122-.933.364-1.316a2.556 2.556 0 011.036-.896c.44-.215.943-.322 1.512-.322.532 0 1.004.08 1.414.238.42.15.747.364.98.644.234.28.35.597.35.952a.703.703 0 01-.28.574c-.177.14-.41.2-.7.182 0-.448-.163-.812-.49-1.092-.317-.28-.732-.42-1.246-.42-.513 0-.928.14-1.246.42-.317.27-.476.625-.476 1.064V7.62c0 .42.164.765.49 1.036.327.261.747.392 1.26.392.514 0 .93-.14 1.246-.42.327-.28.49-.64.49-1.078.3-.019.537.042.714.182a.64.64 0 01.28.56c0 .355-.116.672-.35.952-.233.28-.56.5-.98.658a4.23 4.23 0 01-1.428.224zm7.178 0c-.569 0-1.078-.107-1.525-.322a2.637 2.637 0 01-1.05-.91 2.382 2.382 0 01-.378-1.316V5.506c0-.495.13-.943.392-1.344.27-.401.63-.714 1.078-.938.457-.233.952-.35 1.484-.35.531 0 1.017.112 1.456.336.447.224.797.532 1.05.924.26.392.391.835.391 1.33v.896c0 .15-.055.275-.167.378a.58.58 0 01-.407.154h-4.087v.63c0 .476.149.859.447 1.148.309.29.747.434 1.317.434.569 0 1.003-.126 1.302-.378.298-.252.448-.593.448-1.022.28-.019.513.037.7.168a.6.6 0 01.293.546c0 .299-.13.579-.391.84-.253.261-.589.471-1.009.63a3.77 3.77 0 01-1.344.238zm1.764-4.186v-.476c0-.467-.163-.845-.49-1.134-.317-.299-.742-.448-1.273-.448-.532 0-.962.15-1.288.448-.318.29-.477.667-.477 1.134v.476h3.528zM32.826 16.474c0-.43.168-.77.504-1.022.336-.261.793-.392 1.372-.392l2.94 7.392-.322.882.14.056 3.15-8.316c.57 0 1.022.13 1.358.392a1.2 1.2 0 01.518 1.022v8.638c-1.223 0-1.834-.457-1.834-1.372v-4.48l.476-1.288-.154-.056-2.562 6.692a.83.83 0 01-.308.364.816.816 0 01-.91 0 .85.85 0 01-.294-.378l-2.562-6.692-.154.056.462 1.288v4.494c0 .915-.607 1.372-1.82 1.372v-8.652zm14.359 8.652a3.669 3.669 0 01-1.582-.336 2.965 2.965 0 01-1.134-.938c-.28-.401-.42-.85-.42-1.344v-1.862c0-.523.144-.994.434-1.414.289-.42.672-.751 1.148-.994a3.457 3.457 0 011.568-.364c.55 0 1.054.117 1.512.35a2.69 2.69 0 011.106.952c.27.401.406.863.406 1.386v.784c0 .205-.08.378-.238.518a.807.807 0 01-.574.21h-3.668v.308c0 .401.121.728.364.98.242.252.606.378 1.092.378.466 0 .812-.103 1.036-.308.233-.205.35-.471.35-.798a3.62 3.62 0 01.35-.028c.345 0 .616.08.812.238.196.15.294.364.294.644 0 .27-.126.532-.378.784s-.598.457-1.036.616a4.21 4.21 0 01-1.442.238zm1.456-4.298v-.266c0-.392-.136-.71-.406-.952-.271-.243-.621-.364-1.05-.364-.43 0-.78.121-1.05.364-.262.233-.392.55-.392.952v.266h2.898zm5.939 4.298c-.606 0-1.143-.107-1.61-.322a2.662 2.662 0 01-1.092-.924 2.343 2.343 0 01-.392-1.33v-1.96c0-.532.13-1.003.392-1.414.261-.41.626-.728 1.092-.952.467-.233.999-.35 1.596-.35.56 0 1.055.08 1.484.238.439.159.78.383 1.022.672.243.28.364.607.364.98a.85.85 0 01-.336.7c-.224.177-.518.266-.882.266-.103 0-.177-.005-.224-.014 0-.401-.13-.723-.392-.966-.252-.243-.583-.364-.994-.364-.41 0-.746.117-1.008.35-.252.233-.378.541-.378.924v1.764c0 .355.13.644.392.868.262.215.598.322 1.008.322.41 0 .747-.121 1.008-.364a1.27 1.27 0 00.392-.952c.056-.01.136-.014.238-.014.364 0 .658.084.882.252a.812.812 0 01.336.686c0 .373-.126.705-.378.994-.242.28-.583.504-1.022.672a4.387 4.387 0 01-1.498.238zm4.236-8.708c0-.43.15-.76.448-.994.299-.233.728-.35 1.288-.35v3.64a2.81 2.81 0 00-.336.448l.084.056c.644-.896 1.466-1.344 2.464-1.344.476 0 .896.107 1.26.322.364.215.644.509.84.882.206.373.308.793.308 1.26v3.724c0 .373-.144.644-.434.812-.29.168-.728.252-1.316.252V20.59c0-.355-.107-.644-.322-.868-.205-.224-.508-.336-.91-.336-.476 0-.868.15-1.176.448-.308.29-.462.653-.462 1.092v3.136c0 .373-.144.644-.434.812-.29.168-.723.252-1.302.252v-8.708zm10.186 8.708c-.476 0-.915-.093-1.316-.28a2.405 2.405 0 01-.952-.798c-.234-.355-.35-.775-.35-1.26s.126-.905.378-1.26c.252-.364.592-.64 1.022-.826a3.491 3.491 0 011.442-.294c.429 0 .812.07 1.148.21.345.13.662.331.952.602l.07-.07a6.52 6.52 0 00-.434-.378v-.28c0-.383-.136-.686-.406-.91-.271-.224-.65-.336-1.134-.336-.868 0-1.508.317-1.918.952a1.258 1.258 0 01-.518-.308.689.689 0 01-.21-.476c0-.28.126-.537.378-.77.252-.233.592-.42 1.022-.56a4.49 4.49 0 011.4-.21c.989 0 1.754.233 2.296.7.54.457.812 1.083.812 1.876v3.5c0 .41-.131.71-.392.896-.262.187-.672.28-1.232.28v-.574c.158-.159.266-.275.322-.35l-.056-.07c-.308.327-.64.574-.994.742-.346.168-.79.252-1.33.252zm.448-1.274c.485 0 .863-.093 1.134-.28.27-.187.406-.453.406-.798a.925.925 0 00-.42-.798c-.271-.196-.64-.294-1.106-.294-.43 0-.77.098-1.022.294-.243.187-.364.453-.364.798 0 .355.12.625.364.812.242.177.578.266 1.008.266zm4.802-4.634c0-.43.135-.76.406-.994.28-.233.7-.35 1.26-.35v.84c-.112.13-.224.28-.336.448l.084.056c.28-.42.64-.747 1.078-.98a2.957 2.957 0 011.456-.364c.476 0 .896.107 1.26.322.364.215.644.509.84.882.205.373.308.793.308 1.26v3.724c0 .373-.145.644-.434.812-.29.168-.728.252-1.316.252V20.59c0-.355-.108-.644-.322-.868-.206-.224-.509-.336-.91-.336-.476 0-.868.15-1.176.448-.308.29-.462.653-.462 1.092v3.136c0 .373-.14.644-.42.812-.28.168-.719.252-1.316.252v-5.908zm9.078-2.002c-.336 0-.616-.098-.84-.294a1.038 1.038 0 01-.322-.784c0-.308.107-.56.322-.756.224-.205.504-.308.84-.308.336 0 .611.103.826.308a.959.959 0 01.336.756c0 .317-.112.579-.336.784-.215.196-.49.294-.826.294zm-.882 1.722c0-.383.145-.653.434-.812.29-.168.728-.252 1.316-.252v6.188c0 .373-.145.644-.434.812-.29.168-.728.252-1.316.252v-6.188zm6.708 6.188c-.606 0-1.143-.107-1.61-.322a2.663 2.663 0 01-1.092-.924 2.343 2.343 0 01-.392-1.33v-1.96c0-.532.131-1.003.392-1.414a2.59 2.59 0 011.092-.952c.467-.233.999-.35 1.596-.35.56 0 1.055.08 1.484.238.439.159.78.383 1.022.672.243.28.364.607.364.98a.85.85 0 01-.336.7c-.224.177-.518.266-.882.266a1.31 1.31 0 01-.224-.014c0-.401-.13-.723-.392-.966-.252-.243-.583-.364-.994-.364-.41 0-.746.117-1.008.35-.252.233-.378.541-.378.924v1.764c0 .355.131.644.392.868.262.215.598.322 1.008.322.411 0 .747-.121 1.008-.364.262-.252.392-.57.392-.952.056-.01.136-.014.238-.014.364 0 .658.084.882.252a.812.812 0 01.336.686c0 .373-.126.705-.378.994-.242.28-.583.504-1.022.672a4.386 4.386 0 01-1.498.238z"/></svg>