<svg xmlns="http://www.w3.org/2000/svg" width="266" height="120" fill="none" viewBox="0 0 266 120">
  <path fill="#000" d="M1.778 53.754c-.484 0-.907-.17-1.27-.508A1.806 1.806 0 0 1 0 51.974v-21.14C0 28.943 1.137 28 3.41 28v22.74h11.137c.847 0 1.5.265 1.96.798.459.509.689 1.247.689 2.216H1.778Zm24.494.327c-1.475 0-2.818-.279-4.027-.836-1.185-.556-2.116-1.307-2.793-2.252a5.657 5.657 0 0 1-.98-3.233v-5.957c0-1.21.327-2.312.98-3.305.677-.993 1.608-1.78 2.793-2.361 1.185-.581 2.527-.872 4.027-.872s2.842.29 4.027.872c1.209.58 2.14 1.368 2.793 2.36a5.737 5.737 0 0 1 1.016 3.306v5.958a5.514 5.514 0 0 1-1.016 3.232c-.677.945-1.608 1.695-2.793 2.252-1.185.558-2.528.836-4.027.836Zm0-2.724c1.451 0 2.6-.34 3.446-1.017.87-.703 1.306-1.61 1.306-2.725v-5.703c0-1.162-.435-2.107-1.306-2.833-.846-.727-1.995-1.09-3.446-1.09-1.427 0-2.576.364-3.447 1.09-.87.726-1.306 1.67-1.306 2.833v5.703c0 1.114.424 2.022 1.27 2.724.87.679 2.032 1.018 3.483 1.018Zm18.75 2.724c-1.476 0-2.794-.266-3.955-.8-1.16-.532-2.068-1.283-2.72-2.251-.63-.969-.944-2.07-.944-3.306V41.84c0-1.284.315-2.422.944-3.415.652-.993 1.547-1.768 2.684-2.325 1.137-.557 2.443-.835 3.918-.835 1.379 0 2.6.206 3.664.617 1.089.388 1.935.945 2.54 1.671.604.727.907 1.55.907 2.47 0 .606-.242 1.102-.726 1.49-.46.363-1.064.52-1.814.472 0-1.163-.423-2.107-1.27-2.833-.822-.727-1.898-1.09-3.228-1.09-1.33 0-2.407.363-3.23 1.09-.821.702-1.233 1.622-1.233 2.76v5.667c0 1.09.424 1.986 1.27 2.688.847.678 1.935 1.017 3.265 1.017s2.407-.363 3.229-1.09c.846-.726 1.27-1.659 1.27-2.797.774-.048 1.39.11 1.85.473.484.339.725.823.725 1.453 0 .92-.302 1.743-.907 2.47-.604.726-1.45 1.295-2.539 1.707-1.088.387-2.322.581-3.7.581Zm16.798 0c-2.079 0-3.76-.557-5.042-1.671-1.257-1.114-1.886-2.579-1.886-4.395 0-1.84.665-3.318 1.995-4.432 1.33-1.138 3.084-1.707 5.26-1.707 2.322 0 4.233.823 5.732 2.47l.145-.145c-.266-.29-.568-.594-.906-.908v-1.526c0-1.235-.387-2.192-1.161-2.87-.774-.678-1.875-1.017-3.302-1.017-2.54 0-4.353 1.005-5.441 3.015a3.058 3.058 0 0 1-.98-.763c-.242-.339-.363-.678-.363-1.017 0-.654.327-1.271.98-1.852.653-.606 1.511-1.09 2.576-1.453a10.698 10.698 0 0 1 3.41-.545c2.297 0 4.1.569 5.405 1.707 1.33 1.138 1.995 2.712 1.995 4.722v9.953c0 .848-.241 1.465-.725 1.853-.484.387-1.246.581-2.286.581v-1.707c.508-.533.786-.848.835-.945l-.145-.145c-1.572 1.865-3.604 2.797-6.095 2.797Zm.545-2.506c1.5 0 2.673-.315 3.52-.945.87-.63 1.305-1.501 1.305-2.615 0-1.114-.423-1.998-1.27-2.652-.846-.654-2.007-.98-3.482-.98-1.379 0-2.467.326-3.265.98-.774.63-1.161 1.514-1.161 2.652 0 1.138.375 2.022 1.124 2.651.774.606 1.85.909 3.23.909Zm18.038 2.506c-1.766 0-3.084-.484-3.955-1.453-.87-.993-1.306-2.288-1.306-3.887V30.325c0-.8.254-1.38.762-1.744.532-.387 1.33-.581 2.395-.581v20.632c0 .945.193 1.623.58 2.035.387.411 1.028.617 1.923.617a4.82 4.82 0 0 0 2.467-.654c.314.363.471.787.471 1.271 0 .582-.302 1.09-.907 1.526-.604.436-1.415.654-2.43.654Zm16.209 0c-2.032 0-3.797-.29-5.297-.872-1.475-.581-2.6-1.356-3.374-2.325-.774-.968-1.16-2.01-1.16-3.123 0-.92.241-1.623.725-2.107.484-.509 1.221-.763 2.213-.763 0 2.058.617 3.632 1.85 4.722 1.233 1.066 2.963 1.598 5.188 1.598 2.128 0 3.761-.35 4.897-1.053 1.137-.727 1.705-1.792 1.705-3.197 0-.847-.217-1.537-.653-2.07-.411-.557-1.124-1.03-2.14-1.417-.992-.411-2.43-.823-4.317-1.235-2.225-.484-3.99-1.041-5.297-1.67-1.306-.655-2.261-1.442-2.866-2.362-.604-.92-.907-2.058-.907-3.414 0-1.356.375-2.543 1.125-3.56.774-1.041 1.862-1.84 3.265-2.398 1.403-.556 3.035-.835 4.897-.835 1.766 0 3.338.254 4.717.763 1.402.484 2.491 1.186 3.265 2.107.798.896 1.197 1.913 1.197 3.05 0 .703-.23 1.26-.689 1.672-.436.387-1.125.581-2.068.581-.266-1.84-.919-3.184-1.959-4.032-1.016-.848-2.504-1.271-4.463-1.271-1.886 0-3.337.339-4.353 1.017-1.016.654-1.524 1.586-1.524 2.797 0 .847.182 1.55.545 2.107.387.532 1.028.992 1.922 1.38.92.387 2.201.763 3.846 1.126 2.467.533 4.402 1.126 5.804 1.78 1.427.654 2.455 1.453 3.084 2.397.629.945.943 2.107.943 3.487 0 2.204-.919 3.948-2.757 5.231-1.838 1.26-4.293 1.889-7.364 1.889Zm21.569 0c-1.475 0-2.794-.279-3.954-.836-1.161-.58-2.068-1.368-2.721-2.36-.653-1.018-.98-2.156-.98-3.415v-5.376c0-1.284.339-2.446 1.016-3.487a7.176 7.176 0 0 1 2.793-2.434 8.334 8.334 0 0 1 3.846-.908c1.378 0 2.636.29 3.773.872 1.161.58 2.068 1.38 2.721 2.397.677 1.017 1.015 2.168 1.015 3.45v2.326c0 .387-.145.714-.435.98a1.5 1.5 0 0 1-1.052.4H113.61v1.635c0 1.235.387 2.227 1.161 2.978.798.75 1.935 1.126 3.41 1.126s2.6-.327 3.374-.98c.774-.654 1.161-1.538 1.161-2.652.725-.049 1.33.097 1.814.436.507.315.761.787.761 1.416 0 .775-.338 1.502-1.015 2.18-.653.678-1.524 1.223-2.612 1.634a9.767 9.767 0 0 1-3.483.618Zm4.571-10.861v-1.235c0-1.21-.423-2.192-1.27-2.942-.822-.775-1.923-1.163-3.301-1.163-1.379 0-2.491.388-3.338 1.163-.822.75-1.233 1.731-1.233 2.942v1.235h9.142Zm14.999-5.158c-1.355 0-2.479.412-3.374 1.235-.895.799-1.342 1.78-1.342 2.942v9.517c0 .8-.267 1.393-.799 1.78-.507.363-1.294.545-2.358.545V37.953c0-1.792 1.016-2.688 3.048-2.688v2.216c-.387.411-.653.775-.798 1.09l.145.145c1.548-2.3 3.482-3.451 5.804-3.451.871 0 1.536.218 1.995.654.46.411.69.92.69 1.525 0 .436-.109.824-.327 1.163-.677-.364-1.572-.545-2.684-.545Zm13.563 16.019a1.73 1.73 0 0 1-.979-.29 1.616 1.616 0 0 1-.617-.727l-6.965-17.545c.145-.072.35-.133.617-.181.266-.049.507-.073.725-.073.532 0 1.004.121 1.415.363.411.242.689.593.834 1.053l4.789 13.041-.508 1.453.182.073 5.441-14.566c.145-.46.423-.812.835-1.054.411-.242.87-.363 1.378-.363.218 0 .46.024.726.072.266.049.483.11.653.182l-6.966 17.545c-.121.29-.326.533-.616.726a1.56 1.56 0 0 1-.944.291Zm14.155-21.541c-.678 0-1.246-.217-1.706-.653-.459-.436-.689-.981-.689-1.635s.23-1.186.689-1.598c.46-.436 1.028-.654 1.706-.654.653 0 1.209.218 1.668.654.46.412.69.944.69 1.598 0 .654-.23 1.199-.69 1.635a2.334 2.334 0 0 1-1.668.654Zm-1.597 5.05c0-.8.254-1.38.762-1.744.532-.387 1.33-.581 2.394-.581v16.491c0 .8-.266 1.393-.798 1.78-.508.363-1.294.545-2.358.545V37.59Zm16.307 16.491c-1.476 0-2.794-.266-3.955-.8-1.161-.532-2.067-1.283-2.72-2.251-.629-.969-.944-2.07-.944-3.306V41.84c0-1.284.315-2.422.944-3.415.653-.993 1.547-1.768 2.684-2.325 1.137-.557 2.443-.835 3.918-.835 1.379 0 2.6.206 3.664.617 1.089.388 1.935.945 2.54 1.671.604.727.907 1.55.907 2.47 0 .606-.242 1.102-.726 1.49-.459.363-1.064.52-1.814.472 0-1.163-.423-2.107-1.27-2.833-.822-.727-1.898-1.09-3.228-1.09-1.33 0-2.407.363-3.229 1.09-.822.702-1.233 1.622-1.233 2.76v5.667c0 1.09.423 1.986 1.269 2.688.847.678 1.935 1.017 3.265 1.017s2.407-.363 3.229-1.09c.846-.726 1.27-1.659 1.27-2.797.774-.048 1.39.11 1.85.473.484.339.725.823.725 1.453 0 .92-.302 1.743-.906 2.47-.605.726-1.452 1.295-2.54 1.707-1.088.387-2.322.581-3.7.581Zm18.6 0c-1.475 0-2.793-.279-3.954-.836-1.161-.58-2.068-1.368-2.721-2.36-.653-1.018-.98-2.156-.98-3.415v-5.376c0-1.284.339-2.446 1.016-3.487a7.179 7.179 0 0 1 2.794-2.434 8.33 8.33 0 0 1 3.845-.908c1.379 0 2.636.29 3.773.872 1.161.58 2.068 1.38 2.721 2.397.677 1.017 1.016 2.168 1.016 3.45v2.326c0 .387-.145.714-.436.98a1.5 1.5 0 0 1-1.052.4h-10.593v1.635c0 1.235.387 2.227 1.161 2.978.798.75 1.935 1.126 3.41 1.126s2.6-.327 3.374-.98c.774-.654 1.161-1.538 1.161-2.652.725-.049 1.33.097 1.814.436.508.315.762.787.762 1.416 0 .775-.339 1.502-1.016 2.18-.653.678-1.524 1.223-2.612 1.634a9.763 9.763 0 0 1-3.483.618Zm4.571-10.861v-1.235c0-1.21-.423-2.192-1.27-2.942-.822-.775-1.922-1.163-3.301-1.163-1.378 0-2.491.388-3.337 1.163-.823.75-1.234 1.731-1.234 2.942v1.235h9.142ZM82.522 70.552c0-1.115.436-1.998 1.306-2.652.87-.678 2.056-1.017 3.555-1.017l7.619 19.179-.834 2.288.362.146 8.163-21.577c1.475 0 2.648.34 3.519 1.017.895.654 1.342 1.538 1.342 2.652V93c-3.168 0-4.752-1.187-4.752-3.56V77.816l1.233-3.341-.399-.146-6.639 17.363c-.17.388-.435.703-.798.945a1.946 1.946 0 0 1-1.16.363c-.436 0-.835-.121-1.198-.363a2.207 2.207 0 0 1-.762-.981L86.44 74.293l-.399.145 1.197 3.342v11.66c0 2.373-1.572 3.56-4.716 3.56V70.552ZM119.73 93c-1.5 0-2.866-.29-4.1-.872-1.233-.605-2.213-1.416-2.938-2.433a5.957 5.957 0 0 1-1.089-3.488v-4.83c0-1.357.375-2.58 1.125-3.67.75-1.09 1.741-1.949 2.975-2.579a8.948 8.948 0 0 1 4.063-.944c1.427 0 2.733.303 3.918.908 1.209.581 2.165 1.405 2.866 2.47.701 1.041 1.052 2.24 1.052 3.596v2.034c0 .533-.206.981-.617 1.344-.387.364-.883.545-1.487.545h-9.505v.8c0 1.04.314 1.888.943 2.542.629.654 1.572.98 2.83.98 1.209 0 2.104-.266 2.685-.798.604-.533.906-1.223.906-2.07.436-.05.738-.073.907-.073.895 0 1.597.205 2.105.617.507.388.761.945.761 1.671 0 .702-.326 1.38-.979 2.034-.653.654-1.548 1.187-2.685 1.598-1.136.412-2.382.618-3.736.618Zm3.773-11.152v-.69c0-1.017-.351-1.84-1.052-2.47-.702-.63-1.609-.944-2.721-.944-1.113 0-2.02.314-2.721.944-.677.606-1.016 1.429-1.016 2.47v.69h7.51ZM138.894 93c-1.573 0-2.963-.278-4.172-.835-1.21-.582-2.153-1.38-2.83-2.398-.677-1.017-1.016-2.167-1.016-3.45V81.23c0-1.38.339-2.603 1.016-3.669.677-1.065 1.62-1.889 2.83-2.47 1.209-.605 2.587-.908 4.135-.908 1.451 0 2.733.206 3.846.618 1.136.411 2.019.992 2.648 1.743.629.727.943 1.574.943 2.543 0 .75-.29 1.356-.87 1.816-.581.46-1.343.69-2.286.69a3.28 3.28 0 0 1-.58-.036c0-1.042-.339-1.877-1.016-2.507-.653-.63-1.512-.944-2.576-.944s-1.935.303-2.612.908c-.653.606-.979 1.405-.979 2.397v4.577c0 .92.338 1.671 1.015 2.252.678.558 1.548.836 2.612.836 1.065 0 1.935-.315 2.612-.945.678-.653 1.016-1.477 1.016-2.47.145-.024.351-.036.617-.036.943 0 1.705.218 2.285.654.581.436.871 1.03.871 1.78 0 .968-.326 1.828-.979 2.579-.629.726-1.512 1.308-2.649 1.743-1.136.412-2.43.618-3.881.618Zm10.976-22.594c0-1.114.387-1.973 1.161-2.579.774-.605 1.887-.908 3.338-.908v9.444a7.3 7.3 0 0 0-.871 1.163l.218.145c1.669-2.325 3.797-3.487 6.385-3.487 1.233 0 2.322.278 3.265.835a5.665 5.665 0 0 1 2.177 2.289c.532.968.798 2.058.798 3.269v9.662c0 .969-.375 1.671-1.125 2.107-.75.436-1.886.654-3.41.654V81.23c0-.92-.278-1.67-.834-2.251-.533-.581-1.319-.872-2.359-.872-1.233 0-2.249.387-3.047 1.162-.798.751-1.197 1.695-1.197 2.834v8.136c0 .969-.375 1.671-1.125 2.107-.749.436-1.874.654-3.374.654V70.406ZM176.264 93c-1.234 0-2.371-.242-3.41-.727a6.228 6.228 0 0 1-2.467-2.07c-.605-.92-.907-2.01-.907-3.27 0-1.258.326-2.348.979-3.268.653-.945 1.536-1.66 2.648-2.144 1.137-.508 2.383-.762 3.737-.762 1.113 0 2.104.181 2.975.544.895.34 1.717.86 2.467 1.563l.181-.182c-.217-.218-.592-.545-1.124-.98v-.727c0-.993-.351-1.78-1.053-2.362-.701-.58-1.68-.871-2.938-.871-2.249 0-3.906.823-4.97 2.47a3.255 3.255 0 0 1-1.342-.8c-.363-.387-.545-.799-.545-1.234 0-.727.327-1.393.98-1.998.653-.606 1.536-1.09 2.648-1.453 1.113-.363 2.322-.545 3.628-.545 2.564 0 4.547.605 5.95 1.816 1.402 1.187 2.104 2.81 2.104 4.868v9.08c0 1.066-.339 1.841-1.016 2.326-.677.484-1.741.726-3.193.726v-1.49c.412-.411.69-.714.835-.907l-.145-.182c-.798.847-1.657 1.49-2.576 1.925-.895.436-2.044.654-3.446.654Zm1.161-3.305c1.257 0 2.237-.243 2.938-.727.701-.484 1.052-1.175 1.052-2.07 0-.872-.363-1.563-1.088-2.071-.702-.508-1.657-.763-2.866-.763-1.113 0-1.996.255-2.649.763-.628.484-.943 1.174-.943 2.07 0 .92.315 1.623.943 2.107.629.46 1.5.69 2.613.69Zm12.443-12.024c0-1.114.351-1.974 1.053-2.579.725-.605 1.813-.908 3.265-.908v2.18c-.291.338-.581.726-.871 1.162l.218.145a7.602 7.602 0 0 1 2.793-2.543c1.137-.63 2.394-.944 3.773-.944 1.233 0 2.322.278 3.265.835a5.665 5.665 0 0 1 2.177 2.289c.532.968.798 2.058.798 3.269v9.662c0 .969-.375 1.671-1.125 2.107-.75.436-1.886.654-3.41.654V81.23c0-.92-.278-1.67-.834-2.251-.533-.581-1.319-.872-2.359-.872-1.233 0-2.249.387-3.047 1.162-.798.751-1.197 1.695-1.197 2.834v8.136c0 .969-.363 1.671-1.088 2.107-.726.436-1.863.654-3.411.654V77.671Zm23.524-5.194c-.87 0-1.596-.255-2.176-.763-.557-.533-.835-1.21-.835-2.034 0-.8.278-1.453.835-1.962.58-.533 1.306-.799 2.176-.799.871 0 1.584.266 2.141.8.58.508.87 1.162.87 1.96 0 .824-.29 1.502-.87 2.035-.557.508-1.27.763-2.141.763Zm-2.285 4.468c0-.993.375-1.695 1.124-2.107.75-.436 1.887-.654 3.41-.654v16.055c0 .969-.374 1.671-1.124 2.107-.75.436-1.887.654-3.41.654V76.945ZM228.49 93c-1.572 0-2.962-.278-4.172-.835-1.209-.582-2.152-1.38-2.829-2.398-.677-1.017-1.016-2.167-1.016-3.45V81.23c0-1.38.339-2.603 1.016-3.669.677-1.065 1.62-1.889 2.829-2.47 1.21-.605 2.588-.908 4.136-.908 1.451 0 2.733.206 3.846.618 1.136.411 2.019.992 2.648 1.743.629.727.943 1.574.943 2.543 0 .75-.29 1.356-.871 1.816-.58.46-1.342.69-2.285.69a3.3 3.3 0 0 1-.58-.036c0-1.042-.339-1.877-1.016-2.507-.653-.63-1.512-.944-2.576-.944s-1.935.303-2.612.908c-.653.606-.98 1.405-.98 2.397v4.577c0 .92.339 1.671 1.016 2.252.677.558 1.548.836 2.612.836s1.935-.315 2.612-.945c.677-.653 1.016-1.477 1.016-2.47.145-.024.351-.036.617-.036.943 0 1.705.218 2.285.654.581.436.871 1.03.871 1.78 0 .968-.327 1.828-.98 2.579-.628.726-1.511 1.308-2.648 1.743-1.137.412-2.43.618-3.882.618Z"/>
  <path fill="#56ACE0" d="M44.437 102.073c-5.366 1.077-10.75-.622-14.446-4.377-3.992-3.992-5.603-9.9-4.17-15.385a1.712 1.712 0 0 1 1.166-1.195 1.686 1.686 0 0 1 1.62.425l6.947 6.946c2.42 2.372 5.681 2.125 7.924 0a5.612 5.612 0 0 0 0-7.924l-6.946-6.947c-.425-.425-.593-1.037-.425-1.62a1.627 1.627 0 0 1 1.196-1.166 16.12 16.12 0 0 1 4.06-.524c4.29 0 8.3 1.67 11.324 4.694 3.765 3.764 5.405 9.229 4.378 14.446l2.094 2.094c.1-.316.188-.622.267-.948a1.67 1.67 0 0 1 1.62-1.285h3.31v-5.879h-3.31a1.66 1.66 0 0 1-1.62-1.284 18.709 18.709 0 0 0-2.302-5.563 1.658 1.658 0 0 1 .237-2.056l2.342-2.341-4.16-4.16-2.342 2.341a1.66 1.66 0 0 1-2.055.238 17.948 17.948 0 0 0-5.563-2.312 1.67 1.67 0 0 1-1.285-1.62V63.36H38.42v3.31c0 .78-.533 1.452-1.284 1.62a18.71 18.71 0 0 0-5.563 2.303 1.658 1.658 0 0 1-2.055-.238l-2.352-2.342-4.16 4.16 2.342 2.342a1.66 1.66 0 0 1 .237 2.055 18.463 18.463 0 0 0-2.302 5.563 1.67 1.67 0 0 1-1.62 1.285H18.35v5.889h3.31c.78 0 1.453.534 1.62 1.284a18.71 18.71 0 0 0 2.303 5.564 1.658 1.658 0 0 1-.237 2.055l-2.342 2.341 4.16 4.16 2.342-2.341a1.658 1.658 0 0 1 2.055-.238 18.48 18.48 0 0 0 5.563 2.303c.75.178 1.284.849 1.284 1.62v3.31h5.88v-3.31c0-.78.533-1.452 1.284-1.62.316-.07.623-.178.949-.267l-2.085-2.095Z"/>
  <path fill="#FFC10D" d="M70.029 107.093 54.07 91.135a1.666 1.666 0 0 1-.435-1.59 12.76 12.76 0 0 0-3.29-12.194c-2.411-2.411-5.632-3.725-9.061-3.705L45.84 78.2c3.488 3.488 3.488 9.15 0 12.638-3.439 3.379-8.834 3.557-12.638 0l-4.555-4.555c-.01 3.35 1.294 6.64 3.705 9.05 3.884 4.062 9.654 4.121 12.203 3.29a1.65 1.65 0 0 1 1.591.436l7.609 7.608 3.744-3.745a1.658 1.658 0 0 1 2.352 0c.652.652.652 1.7 0 2.352l-3.745 3.755 2.273 2.272 1.285-1.284a1.658 1.658 0 0 1 2.351 0 1.658 1.658 0 0 1 0 2.352l-1.284 1.284 1.353 1.354c2.194 2.253 5.731 2.114 7.925 0 2.203-2.174 2.203-5.731.02-7.915Z"/>
  <path fill="#194F82" d="M72.38 104.731 61.808 94.159c.187-.504.375-1.018.533-1.532h3.696c.919 0 1.67-.74 1.67-1.67v-9.209c0-.919-.741-1.67-1.67-1.67H62.34a22.1 22.1 0 0 0-1.71-4.12l2.61-2.609c.652-.652.652-1.7 0-2.351l-6.522-6.522a1.658 1.658 0 0 0-2.352 0l-2.608 2.609a21.706 21.706 0 0 0-4.12-1.71V61.67c0-.92-.742-1.67-1.67-1.67h-9.23c-.918 0-1.67.741-1.67 1.67v3.695a22.1 22.1 0 0 0-4.12 1.71l-2.608-2.609a1.658 1.658 0 0 0-2.352 0l-6.532 6.512a1.658 1.658 0 0 0 0 2.352l2.619 2.618a21.187 21.187 0 0 0-1.71 4.12H16.68c-.919 0-1.67.741-1.67 1.67v9.21c0 .918.741 1.67 1.67 1.67h3.696a22.09 22.09 0 0 0 1.709 4.12l-2.609 2.608a1.658 1.658 0 0 0 0 2.352l6.512 6.541c.622.623 1.739.623 2.352 0l2.608-2.608a21.743 21.743 0 0 0 4.12 1.709v3.686c0 .919.742 1.67 1.67 1.67h9.23c.918 0 1.67-.741 1.67-1.67v-3.696a15.66 15.66 0 0 0 1.53-.533l10.574 10.572c3.764 3.765 9.387 3.241 12.637 0 3.478-3.488 3.478-9.159 0-12.638Zm-10.286 10.287-1.354-1.354 1.285-1.285a1.657 1.657 0 0 0 0-2.351 1.657 1.657 0 0 0-2.352 0l-1.284 1.284-2.283-2.282 3.745-3.745c.652-.652.652-1.7 0-2.352a1.658 1.658 0 0 0-2.352 0l-3.744 3.745-7.609-7.608c-.711-.662-1.452-.475-1.59-.435-2.54.83-8.31.77-12.204-3.29a12.71 12.71 0 0 1-3.705-9.052l4.555 4.556c3.804 3.557 9.2 3.379 12.638 0 3.488-3.488 3.488-9.15 0-12.638l-4.555-4.555c3.429 0 6.64 1.294 9.06 3.705 3.163 3.162 4.428 7.846 3.291 12.193-.158.564.01 1.186.435 1.591l15.958 15.958a5.611 5.611 0 0 1 0 7.924c-2.214 2.105-5.741 2.243-7.935-.009Zm-17.796-8.972v3.31H38.42v-3.31c0-.781-.533-1.453-1.284-1.621a18.712 18.712 0 0 1-5.563-2.302 1.659 1.659 0 0 0-2.055.237l-2.352 2.342-4.16-4.16 2.342-2.342a1.66 1.66 0 0 0 .237-2.055 18.463 18.463 0 0 1-2.302-5.563 1.67 1.67 0 0 0-1.62-1.285H18.35v-5.88h3.31c.78 0 1.453-.533 1.62-1.284a18.711 18.711 0 0 1 2.303-5.563 1.658 1.658 0 0 0-.237-2.055l-2.342-2.342 4.16-4.18 2.342 2.343a1.66 1.66 0 0 0 2.055.237 18.421 18.421 0 0 1 5.563-2.303 1.67 1.67 0 0 0 1.284-1.62v-3.31h5.88v3.31c0 .78.533 1.453 1.284 1.62a18.709 18.709 0 0 1 5.563 2.303 1.658 1.658 0 0 0 2.055-.237l2.342-2.342 4.16 4.16-2.342 2.342a1.66 1.66 0 0 0-.237 2.055 18.46 18.46 0 0 1 2.302 5.563 1.67 1.67 0 0 0 1.62 1.284h3.311v5.89h-3.31a1.66 1.66 0 0 0-1.62 1.284c-.07.316-.179.642-.267.948l-2.095-2.084c1.018-5.218-.613-10.682-4.377-14.446a15.93 15.93 0 0 0-11.324-4.694c-1.374 0-2.737.178-4.061.524a1.712 1.712 0 0 0-1.196 1.166c-.158.583.01 1.195.425 1.62l6.946 6.946a5.612 5.612 0 0 1 0 7.925c-2.243 2.124-5.503 2.371-7.924 0l-6.946-6.946c-.425-.425-1.038-.593-1.62-.425A1.627 1.627 0 0 0 25.81 82.3c-1.403 5.494.188 11.383 4.19 15.375 3.695 3.765 9.08 5.464 14.446 4.377l2.094 2.095c-.316.099-.622.188-.948.267-.76.198-1.295.86-1.295 1.631Z"/>
  <path fill="#fff" d="M262.574 19.878c0-9.129-7.43-16.548-16.549-16.548-9.129 0-16.549 7.43-16.549 16.548 0 1.146.317 3.221 1.631 6.827l3.507-3.507a11.84 11.84 0 0 1 2.984-11.777c2.242-2.243 6.234-4.426 11.609-3.023a1.62 1.62 0 0 1 1.156 1.186 1.602 1.602 0 0 1-.435 1.59l-4.881 4.89.652 4.051 4.051.652 4.891-4.89a1.665 1.665 0 0 1 2.776.721c1.156 4.13.109 8.704-3.033 11.61-5.236 4.84-10.68 3.309-11.777 2.983l-6.53 6.53 9.939 17.468c5.67-9.11 16.558-28.108 16.558-35.31Z"/>
  <path fill="#56ACE0" d="M246.015 6.659c-7.291 0-13.219 5.928-13.219 13.22 0 .71.227 2.894 2.292 7.913l4.209 8.062h8.398c.919 0 1.669.74 1.669 1.67 0 .918-.74 1.67-1.669 1.67h-6.649l1.995 3.833h2.125c.918 0 1.669.74 1.669 1.67 0 .918-.741 1.669-1.669 1.669h-.386l1.265 2.42c6.422-10.828 13.199-24.067 13.199-28.898 0-7.301-5.928-13.229-13.229-13.229Z"/>
  <path fill="#194F82" d="M246.025 0c-10.957 0-19.878 8.912-19.878 19.878 0 2.282.781 5.375 2.371 9.416l-10.739 10.739c-1.798 1.68-2.648 5.236 0 7.993 2.193 2.37 6.224 2.005 7.993 0l7.824-7.825c5.059 9.722 10.957 18.93 11.016 19.028a1.66 1.66 0 0 0 2.806 0c.751-1.185 18.486-28.918 18.486-39.35C265.903 8.911 256.982 0 246.025 0ZM223.41 45.674c-.869.87-2.41.87-3.28 0-.909-.909-.929-2.4 0-3.28l17.586-17.586a1.679 1.679 0 0 0 .366-1.808 8.535 8.535 0 0 1 1.877-9.237 8.407 8.407 0 0 1 5.118-2.44l-2.974 2.973a1.686 1.686 0 0 0-.474 1.443l.968 6.085a1.678 1.678 0 0 0 1.383 1.384l6.086.978a1.687 1.687 0 0 0 1.442-.474l2.974-2.974c-.217 1.897-1.047 3.724-2.44 5.117-1.611 1.61-5.039 3.498-9.238 1.878a1.698 1.698 0 0 0-1.808.365L223.41 45.674Zm22.615 9.524-9.939-17.467 6.531-6.53c1.096.325 6.54 1.857 11.776-2.984 3.142-2.915 4.189-7.48 3.033-11.609-.168-.563-.612-1.018-1.185-1.156a1.615 1.615 0 0 0-1.591.435l-4.91 4.88-4.051-.652-.652-4.05 4.891-4.89a1.666 1.666 0 0 0 .435-1.591c-.158-.564-.593-1.038-1.156-1.186-5.375-1.403-9.367.79-11.609 3.023a11.84 11.84 0 0 0-2.984 11.777l-3.507 3.507c-1.314-3.586-1.631-5.68-1.631-6.827 0-9.129 7.43-16.548 16.549-16.548 9.129 0 16.549 7.43 16.549 16.548 0 7.203-10.888 26.201-16.549 35.32Z"/>
  <path fill="#FFC10D" d="M240.996 28.098a1.698 1.698 0 0 1 1.808-.365c4.189 1.62 7.618-.267 9.238-1.878a8.511 8.511 0 0 0 2.44-5.117l-2.974 2.974a1.696 1.696 0 0 1-1.442.474l-6.086-.978a1.678 1.678 0 0 1-1.383-1.383l-.968-6.086a1.686 1.686 0 0 1 .474-1.443l2.974-2.974a8.407 8.407 0 0 0-5.118 2.44A8.535 8.535 0 0 0 238.082 23a1.679 1.679 0 0 1-.366 1.808L220.12 42.394c-.928.89-.909 2.371 0 3.28.87.87 2.411.87 3.28 0l17.596-17.576Z"/>
</svg>
